# xmcd
#
# Track frame offsets:
# 150
# 20327
# 58445
# 93971
# 113567
# 137358
# 155920
# 171423
# 193243
# 211603
# 232120
# 252788
# 273070
# 296405
# 311983
#
# Disc length: 4494 seconds
#
# Revision: 1
# Processed by: cddbd v1.4PL0 Copyright (c) Steve Scherf et al.
# Submitted via: Easy CD Ripper 1.45
#
DISCID=d8118c0f
DTITLE=Georg Thorogood and Destroyers - Anthology
DYEAR=2000
DGENRE=Blues
TTITLE0=Madison Blues
TTITLE1=Georg Thorogood and Destroyers - One Bourbon, One Scotch, One Be
TTITLE2=Georg Thorogood and Destroyers - Delaware Slide
TTITLE3=Georg Thorogood and Destroyers - Move It On Over
TTITLE4=Georg Thorogood and Destroyers - The Sky Is Crying
TTITLE5=Georg Thorogood and Destroyers - I´m Wanted
TTITLE6=Georg Thorogood and Destroyers - Nobody But Me
TTITLE7=Georg Thorogood and Destroyers - Bad To The Bone
TTITLE8=Georg Thorogood and Destroyers - Willie and The Hand Jive
TTITLE9=Georg Thorogood and Destroyers - I Dring Alone
TTITLE10=Georg Thorogood and Destroyers - Gear Jammer
TTITLE11=Georg Thorogood and Destroyers - Long Gone
TTITLE12=Georg Thorogood and Destroyers - Reelin´and Rockin´
TTITLE13=Georg Thorogood and Destroyers - Bottom Of The Sea
TTITLE14=Georg Thorogood and Destroyers - Night Time
EXTD=
EXTT0=
EXTT1=
EXTT2=
EXTT3=
EXTT4=
EXTT5=
EXTT6=
EXTT7=
EXTT8=
EXTT9=
EXTT10=
EXTT11=
EXTT12=
EXTT13=
EXTT14=
PLAYORDER=
